<svg width="20" height="20" viewBox="0 0 20 20" fill="none" xmlns="http://www.w3.org/2000/svg">
<path fill-rule="evenodd" clip-rule="evenodd" d="M10 2.1875C10.5178 2.1875 10.9375 2.60723 10.9375 3.125V16.875C10.9375 17.3928 10.5178 17.8125 10 17.8125C9.48223 17.8125 9.0625 17.3928 9.0625 16.875V3.125C9.0625 2.60723 9.48223 2.1875 10 2.1875Z" fill="#0B162A"/>
<path fill-rule="evenodd" clip-rule="evenodd" d="M9.33709 2.46209C9.7032 2.09597 10.2968 2.09597 10.6629 2.46209L16.2879 8.08709C16.654 8.4532 16.654 9.0468 16.2879 9.41291C15.9218 9.77903 15.3282 9.77903 14.9621 9.41291L10 4.45082L5.03791 9.41291C4.6718 9.77903 4.0782 9.77903 3.71209 9.41291C3.34597 9.0468 3.34597 8.4532 3.71209 8.08709L9.33709 2.46209Z" fill="#0B162A"/>
</svg>
