<svg width="90" height="89" viewBox="0 0 90 89" fill="none" xmlns="http://www.w3.org/2000/svg">
<path d="M4.22607 3.7793H85.8915V84.6339H4.22607V3.7793Z" fill="url(#paint0_radial_312219_7)"/>
<path d="M4.22606 3.77927H85.8914V84.6338H4.22606V3.77927ZM0.513184 88.4131H89.5864V0H0.513184V88.4131ZM60.5796 36.2846C57.6522 36.2846 56.6525 37.7927 56.6525 39.0464C56.6525 40.4091 57.313 41.3539 61.2579 43.4253C67.0771 46.296 68.8979 49.0578 68.8979 53.0915C68.8979 59.1419 64.3639 62.3943 58.2412 62.3943C55.0103 62.3943 52.2257 61.722 50.637 60.7772C50.3692 60.6682 50.3335 60.4683 50.3335 60.1776V54.5995C50.3335 54.218 50.512 54.109 50.7798 54.2906C53.1182 55.8351 55.7957 56.5255 58.2412 56.5255C61.1687 56.5255 62.4004 55.2718 62.4004 53.582C62.4004 52.2193 61.5435 51.0201 57.795 49.0396C52.5291 46.4777 50.3335 43.8795 50.3335 39.5188C50.3335 34.6494 54.0821 30.5975 60.5796 30.5975C63.7748 30.5975 66.0061 31.0881 67.22 31.6514C67.5234 31.8331 67.5948 32.142 67.5948 32.4145V37.5928C67.5948 37.9017 67.4163 38.0834 67.0415 37.9744C65.3992 36.9205 62.9894 36.2846 60.5796 36.2846ZM28.6632 40.7725C29.52 40.8452 30.1805 40.8452 31.662 40.8452C35.9997 40.8452 40.0874 39.3008 40.0874 33.2866C40.0874 28.4899 37.16 26.0733 32.2154 26.0733C30.7338 26.0733 29.3237 26.146 28.6453 26.1823L28.6632 40.7725ZM22.0407 20.7133C22.0407 20.4408 22.5584 20.2591 22.8618 20.2591C25.2359 20.15 28.7703 20.0774 32.4296 20.0774C42.7114 20.0774 46.7277 25.8189 46.7277 33.1413C46.7277 42.7348 39.8911 46.8593 31.5014 46.8593C30.0912 46.8593 29.6093 46.7866 28.6096 46.7866V61.2859C28.6096 61.5948 28.5025 61.7402 28.1634 61.7402H22.487C22.1835 61.7402 22.0407 61.6311 22.0407 61.2859V20.7133Z" fill="#31C5F0"/>
<defs>
<radialGradient id="paint0_radial_312219_7" cx="0" cy="0" r="1" gradientUnits="userSpaceOnUse" gradientTransform="translate(31.1305 21.9191) scale(62.0565 61.1565)">
<stop stop-color="#34364E" stop-opacity="0.98"/>
<stop offset="1" stop-color="#0C0824"/>
</radialGradient>
</defs>
</svg>
